<?xml version="1.0" encoding="UTF-8" standalone="no"?>
<svg
   xmlns:dc="http://purl.org/dc/elements/1.1/"
   xmlns:cc="http://creativecommons.org/ns#"
   xmlns:rdf="http://www.w3.org/1999/02/22-rdf-syntax-ns#"
   xmlns:svg="http://www.w3.org/2000/svg"
   xmlns="http://www.w3.org/2000/svg"
   xmlns:sodipodi="http://sodipodi.sourceforge.net/DTD/sodipodi-0.dtd"
   xmlns:inkscape="http://www.inkscape.org/namespaces/inkscape"
   height="36"
   id="svg4488"
   version="1.1"
   width="36"
   inkscape:version="0.91 r13725"
   sodipodi:docname="ai.svg">
  <metadata
     id="metadata8">
    <rdf:RDF>
      <cc:Work
         rdf:about="">
        <dc:format>image/svg+xml</dc:format>
        <dc:type
           rdf:resource="http://purl.org/dc/dcmitype/StillImage" />
        <dc:title />
      </cc:Work>
    </rdf:RDF>
  </metadata>
  <sodipodi:namedview
     pagecolor="#ffffff"
     bordercolor="#666666"
     borderopacity="1"
     objecttolerance="10"
     gridtolerance="10"
     guidetolerance="10"
     inkscape:pageopacity="0"
     inkscape:pageshadow="2"
     inkscape:window-width="1307"
     inkscape:window-height="744"
     id="namedview6"
     showgrid="false"
     inkscape:zoom="6.9516785"
     inkscape:cx="-0.60678825"
     inkscape:cy="12.122786"
     inkscape:window-x="59"
     inkscape:window-y="24"
     inkscape:window-maximized="1"
     inkscape:current-layer="svg4488" />
  <defs
     id="defs4490" />
  <g
     id="layer1"
     transform="matrix(-8.8055979e-4,1.2989267,-1.2989267,-8.8055979e-4,1361.8992,-4.7647315)"
     style="fill:#ffffff;fill-opacity:1">
    <path
       d="m 12.39454,1020.86 c -0.20169,-10e-5 -0.39649,0.1824 -0.39649,0.4824 l 0,0.4668 c 0.002,0.017 0.002,0.034 0.002,0.051 l 0,2 c 0,0.014 -9.5e-4,0.029 -0.002,0.043 l 0,1.9063 c 0.002,0.017 0.002,0.034 0.002,0.051 l 0,2 c 0,0.014 -9.5e-4,0.029 -0.002,0.043 l 0,1.9062 c 0.002,0.017 0.002,0.034 0.002,0.051 l 0,2 c 0,0.014 -9.5e-4,0.029 -0.002,0.043 l 0,1.9063 c 0.002,0.017 0.002,0.034 0.002,0.051 l 0,2 c 0,0.014 -9.5e-4,0.029 -0.002,0.043 l 0,1.9062 c 0.002,0.017 0.002,0.034 0.002,0.051 l 0,2 c 0,0.014 -9.5e-4,0.029 -0.002,0.043 l 0,1.9063 c 0.002,0.017 0.002,0.034 0.002,0.051 l 0,2 c 0,0.014 -9.5e-4,0.029 -0.002,0.043 l 0,1.832 c 0.002,0.017 0.002,0.034 0.002,0.051 l 0,2.0742 c -10e-4,0.01 -10e-4,0.014 -0.002,0.022 0.003,0.2963 0.19587,0.4785 0.39649,0.4785 l 11.21093,0 c 0.20109,0 0.39449,-0.1829 0.39649,-0.4804 -0.001,-0.01 -0.001,-0.013 -0.002,-0.02 l 0,-2 c 0,-0.017 -4e-5,-0.034 0.002,-0.051 l 0,-1.918 c -0.001,-0.01 -0.002,-0.021 -0.002,-0.031 l 0,-2 c 0,-0.017 -4e-5,-0.034 0.002,-0.051 l 0,-1.918 c -0.001,-0.01 -0.002,-0.021 -0.002,-0.031 l 0,-2 c 0,-0.017 -4e-5,-0.034 0.002,-0.051 l 0,-1.918 c -0.001,-0.01 -0.002,-0.021 -0.002,-0.031 l 0,-2 c 0,-0.017 -4e-5,-0.034 0.002,-0.051 l 0,-1.9179 c -0.001,-0.01 -0.002,-0.021 -0.002,-0.031 l 0,-2 c 0,-0.017 -4e-5,-0.034 0.002,-0.051 l 0,-1.918 c -0.001,-0.01 -0.002,-0.021 -0.002,-0.031 l 0,-2 c 0,-0.017 -4e-5,-0.034 0.002,-0.051 l 0,-1.918 c -0.001,-0.01 -0.002,-0.021 -0.002,-0.031 l 0,-2 c 0,-0.017 -4e-5,-0.034 0.002,-0.051 l 0,-0.4668 c 0,-0.2999 -0.19446,-0.4824 -0.39649,-0.4824 l -3.9414,0 -0.10352,0 c -0.0398,0.046 -0.11398,0.1599 -0.2207,0.3047 -0.21898,0.2972 -0.67021,0.7129 -1.33985,0.7129 -0.66963,0 -1.12086,-0.4157 -1.33984,-0.7129 -0.10673,-0.1448 -0.18286,-0.2589 -0.22266,-0.3047 l -0.83789,0 -3.20507,0 z m -2.39454,0.5 0,1 -2,0 0,1 2,0 0,1 0.99805,0 0,-3 -0.99805,0 z m 15.00196,0 0,3 0.99804,0 0,-1 2,0 0,-1 -2,0 0,-1 -0.99804,0 z m -11.53711,0.5 c 0.0117,-4e-4 0.0234,-4e-4 0.0351,0 0.27614,0 0.5,0.2239 0.5,0.5 0,0.2761 -0.22386,0.5 -0.5,0.5 -0.27614,0 -0.5,-0.2239 -0.5,-0.5 -6.5e-4,-0.263 0.20252,-0.4815 0.46485,-0.5 z m -3.46485,3.5 0,1 -2,0 0,1 2,0 0,1 0.99805,0 0,-3 -0.99805,0 z m 15.00196,0 0,3 0.99804,0 0,-1 2,0 0,-1 -2,0 0,-1 -0.99804,0 z m -15.00196,4 0,1 -2,0 0,1 2,0 0,1 0.99805,0 0,-3 -0.99805,0 z m 15.00196,0 0,3 0.99804,0 0,-1 2,0 0,-1 -2,0 0,-1 -0.99804,0 z m -15.00196,4 0,1 -2,0 0,1 2,0 0,1 0.99805,0 0,-3 -0.99805,0 z m 15.00196,0 0,3 0.99804,0 0,-1 2,0 0,-1 -2,0 0,-1 -0.99804,0 z m -15.00196,4 0,1 -2,0 0,1 2,0 0,1 0.99805,0 0,-3 -0.99805,0 z m 15.00196,0 0,3 0.99804,0 0,-1 2,0 0,-1 -2,0 0,-1 -0.99804,0 z m -15.00196,4 0,1 -2,0 0,1 2,0 0,1 0.99805,0 0,-3 -0.99805,0 z m 15.00196,0 0,3 0.99804,0 0,-1 2,0 0,-1 -2,0 0,-1 -0.99804,0 z M 10,1045.2858 l 0,1.0742 -2,0 0,1 2,0 0,1 0.99805,0 0,-3.0742 -0.99805,0 z m 15.00196,0.074 0,3 0.99804,0 0,-1 2,0 0,-1 -2,0 0,-1 -0.99804,0 z"
       id="rect4927"
       style="color:#000000;font-style:normal;font-variant:normal;font-weight:normal;font-stretch:normal;font-size:medium;line-height:normal;font-family:sans-serif;text-indent:0;text-align:start;text-decoration:none;text-decoration-line:none;letter-spacing:normal;word-spacing:normal;text-transform:none;direction:ltr;block-progression:tb;writing-mode:lr-tb;baseline-shift:baseline;text-anchor:start;display:inline;overflow:visible;visibility:visible;fill:#ffffff;fill-opacity:1;fill-rule:nonzero;stroke:none;enable-background:accumulate"
       inkscape:connector-curvature="0" />
  </g>
</svg>
