<?xml version="1.0" encoding="UTF-8" standalone="no"?>
<svg
   xmlns:dc="http://purl.org/dc/elements/1.1/"
   xmlns:cc="http://creativecommons.org/ns#"
   xmlns:rdf="http://www.w3.org/1999/02/22-rdf-syntax-ns#"
   xmlns:svg="http://www.w3.org/2000/svg"
   xmlns="http://www.w3.org/2000/svg"
   xmlns:sodipodi="http://sodipodi.sourceforge.net/DTD/sodipodi-0.dtd"
   xmlns:inkscape="http://www.inkscape.org/namespaces/inkscape"
   style="enable-background:new 0 0 24 24;"
   version="1.1"
   viewBox="0 0 24 24"
   xml:space="preserve"
   id="svg2"
   inkscape:version="0.91 r13725"
   sodipodi:docname="find-hover.svg"><metadata
     id="metadata11"><rdf:RDF><cc:Work
         rdf:about=""><dc:format>image/svg+xml</dc:format><dc:type
           rdf:resource="http://purl.org/dc/dcmitype/StillImage" /><dc:title></dc:title></cc:Work></rdf:RDF></metadata><defs
     id="defs9" /><sodipodi:namedview
     pagecolor="#ffffff"
     bordercolor="#666666"
     borderopacity="1"
     objecttolerance="10"
     gridtolerance="10"
     guidetolerance="10"
     inkscape:pageopacity="0"
     inkscape:pageshadow="2"
     inkscape:window-width="1307"
     inkscape:window-height="744"
     id="namedview7"
     showgrid="false"
     inkscape:zoom="4.2574872"
     inkscape:cx="-27.544311"
     inkscape:cy="-16.702961"
     inkscape:window-x="59"
     inkscape:window-y="24"
     inkscape:window-maximized="1"
     inkscape:current-layer="icons" /><g
     id="info" /><g
     id="icons"><path
       d="M22.4,19.6l-4.8-4.8c0.9-1.4,1.4-3,1.4-4.8c0-5-4-9-9-9s-9,4-9,9s4,9,9,9c1.8,0,3.4-0.5,4.8-1.4l4.8,4.8   c0.4,0.4,0.9,0.6,1.4,0.6c1.1,0,2-0.9,2-2C23,20.4,22.8,19.9,22.4,19.6z M5,10c0-2.8,2.2-5,5-5s5,2.2,5,5s-2.2,5-5,5S5,12.8,5,10z"
       id="search"
       style="fill:#e41a3e;fill-opacity:1" /></g></svg>