<?xml version="1.0" encoding="UTF-8" standalone="no"?>
<svg
   xmlns:dc="http://purl.org/dc/elements/1.1/"
   xmlns:cc="http://creativecommons.org/ns#"
   xmlns:rdf="http://www.w3.org/1999/02/22-rdf-syntax-ns#"
   xmlns:svg="http://www.w3.org/2000/svg"
   xmlns="http://www.w3.org/2000/svg"
   xmlns:sodipodi="http://sodipodi.sourceforge.net/DTD/sodipodi-0.dtd"
   xmlns:inkscape="http://www.inkscape.org/namespaces/inkscape"
   enable-background="new 0 0 48 48"
   height="48px"
   id="Layer_1"
   version="1.1"
   viewBox="0 0 48 48"
   width="48px"
   xml:space="preserve"
   inkscape:version="0.91 r13725"
   sodipodi:docname="info-hover.svg"><metadata
     id="metadata17"><rdf:RDF><cc:Work
         rdf:about=""><dc:format>image/svg+xml</dc:format><dc:type
           rdf:resource="http://purl.org/dc/dcmitype/StillImage" /><dc:title></dc:title></cc:Work></rdf:RDF></metadata><defs
     id="defs15" /><sodipodi:namedview
     pagecolor="#ffffff"
     bordercolor="#666666"
     borderopacity="1"
     objecttolerance="10"
     gridtolerance="10"
     guidetolerance="10"
     inkscape:pageopacity="0"
     inkscape:pageshadow="2"
     inkscape:window-width="1307"
     inkscape:window-height="744"
     id="namedview13"
     showgrid="false"
     inkscape:zoom="1.843342"
     inkscape:cx="-71.501997"
     inkscape:cy="70.417977"
     inkscape:window-x="59"
     inkscape:window-y="24"
     inkscape:window-maximized="1"
     inkscape:current-layer="Layer_1" /><g
     id="g3"
     style="fill:#75a9f9;fill-opacity:1"><g
       id="g5"
       style="fill:#75a9f9;fill-opacity:1"><path
         d="M23.945,15.774c1.26,0,2.053-0.864,2.016-1.944c0-1.115-0.756-1.979-1.943-1.979c-1.151,0-1.979,0.863-1.979,1.979    C22.039,14.91,22.83,15.774,23.945,15.774z"
         id="path7"
         style="fill:#75a9f9;fill-opacity:1" /><path
         d="M25.602,34.941V20.145c0-1.303-1.053-1.413-1.351-1.418h-0.566c0,0-1.251,0.012-1.251,1.152v15.303    c0.023,0.346,0.175,0.967,1.001,0.967h1.181C24.967,36.121,25.602,35.938,25.602,34.941z"
         id="path9"
         style="fill:#75a9f9;fill-opacity:1" /></g><path
       d="M24,0C10.746,0,0,10.744,0,24c0,13.254,10.745,24,24,24c13.256,0,24-10.746,24-24C48,10.744,37.256,0,24,0z M24,44   C12.955,44,4,35.045,4,24C4,12.953,12.955,4,24,4c11.047,0,20,8.954,20,20C44,35.045,35.047,44,24,44z"
       id="path11"
       style="fill:#75a9f9;fill-opacity:1" /></g></svg>