<?xml version="1.0" encoding="UTF-8" standalone="no"?>
<svg
   xmlns:dc="http://purl.org/dc/elements/1.1/"
   xmlns:cc="http://creativecommons.org/ns#"
   xmlns:rdf="http://www.w3.org/1999/02/22-rdf-syntax-ns#"
   xmlns:svg="http://www.w3.org/2000/svg"
   xmlns="http://www.w3.org/2000/svg"
   xmlns:sodipodi="http://sodipodi.sourceforge.net/DTD/sodipodi-0.dtd"
   xmlns:inkscape="http://www.inkscape.org/namespaces/inkscape"
   enable-background="new 0 0 128 128"
   height="128px"
   id="Layer_1"
   version="1.1"
   viewBox="0 0 128 128"
   width="128px"
   xml:space="preserve"
   inkscape:version="0.91 r13725"
   sodipodi:docname="1484790964_Mail.svg"><metadata
     id="metadata15"><rdf:RDF><cc:Work
         rdf:about=""><dc:format>image/svg+xml</dc:format><dc:type
           rdf:resource="http://purl.org/dc/dcmitype/StillImage" /></cc:Work></rdf:RDF></metadata><defs
     id="defs13" /><sodipodi:namedview
     pagecolor="#ffffff"
     bordercolor="#666666"
     borderopacity="1"
     objecttolerance="10"
     gridtolerance="10"
     guidetolerance="10"
     inkscape:pageopacity="0"
     inkscape:pageshadow="2"
     inkscape:window-width="1307"
     inkscape:window-height="744"
     id="namedview11"
     showgrid="false"
     inkscape:zoom="4.5157471"
     inkscape:cx="64"
     inkscape:cy="64"
     inkscape:window-x="59"
     inkscape:window-y="24"
     inkscape:window-maximized="1"
     inkscape:current-layer="Layer_1" /><g
     id="g3"
     style="fill:#ffffff"><g
       id="g5"
       style="fill:#ffffff"><path
         d="M106.828,85.172L83.32,61.668l23.18-18.543c1.723-1.383,2.004-3.898,0.625-5.625    c-1.383-1.715-3.891-2.004-5.625-0.625L64,66.879L26.5,36.875c-1.727-1.379-4.242-1.09-5.625,0.625    c-1.379,1.727-1.098,4.242,0.625,5.625l23.176,18.543L21.172,85.172c-1.563,1.563-1.563,4.094,0,5.656    C21.953,91.609,22.977,92,24,92s2.047-0.391,2.828-1.172l24-24c0.047-0.047,0.063-0.109,0.105-0.156L61.5,75.125    C62.23,75.707,63.117,76,64,76s1.77-0.293,2.5-0.875l10.566-8.453c0.043,0.047,0.059,0.109,0.105,0.156l24,24    C101.953,91.609,102.977,92,104,92s2.047-0.391,2.828-1.172C108.391,89.266,108.391,86.734,106.828,85.172z"
         fill="#B0BEC5"
         id="path7"
         style="fill:#ffffff" /></g></g><path
     d="M104,16H24C10.746,16,0,26.746,0,40v48c0,13.254,10.746,24,24,24h80c13.254,0,24-10.746,24-24V40  C128,26.746,117.254,16,104,16z M120,88c0,8.824-7.176,16-16,16H24c-8.824,0-16-7.176-16-16V40c0-8.824,7.176-16,16-16h80  c8.824,0,16,7.176,16,16V88z"
     fill="#546E7A"
     id="path9"
     style="fill:#ffffff" /></svg>